<svg width="67" height="68" viewBox="0 0 67 68" fill="none" xmlns="http://www.w3.org/2000/svg">
<path d="M29.3318 10.5868V9.3381C29.3318 9.13112 29.2505 8.93262 29.1058 8.78626C28.961 8.6399 28.7647 8.55768 28.5599 8.55768C28.3552 8.55768 28.1589 8.6399 28.0141 8.78626C27.8694 8.93262 27.7881 9.13112 27.7881 9.3381V10.5868C27.7881 10.7937 27.8694 10.9922 28.0141 11.1386C28.1589 11.285 28.3552 11.3672 28.5599 11.3672C28.7647 11.3672 28.961 11.285 29.1058 11.1386C29.2505 10.9922 29.3318 10.7937 29.3318 10.5868ZM29.502 4.57882C29.6007 4.24096 29.7413 3.91707 29.9203 3.61485C29.9724 3.5269 30.0068 3.42944 30.0216 3.32805C30.0363 3.22666 30.0312 3.12331 30.0065 3.02391C29.9818 2.92451 29.938 2.83101 29.8775 2.74874C29.8171 2.66647 29.7412 2.59705 29.6542 2.54443C29.5672 2.49182 29.4708 2.45704 29.3705 2.44209C29.2702 2.42714 29.168 2.4323 29.0697 2.45729C28.9714 2.48227 28.8789 2.52659 28.7975 2.58772C28.7162 2.64884 28.6475 2.72557 28.5955 2.81352C28.3499 3.22837 28.1571 3.67286 28.0215 4.13648C27.9635 4.33518 27.9859 4.54904 28.0838 4.73102C28.1818 4.913 28.3472 5.04819 28.5437 5.10685C28.7403 5.1655 28.9518 5.14282 29.1318 5.0438C29.3118 4.94478 29.4455 4.77752 29.5035 4.57882H29.502ZM33.3969 1.56205H33.4982H34.6153C34.82 1.56205 35.0163 1.47983 35.1611 1.33347C35.3058 1.18712 35.3872 0.988614 35.3872 0.781635C35.3872 0.574656 35.3058 0.376155 35.1611 0.229799C35.0163 0.0834426 34.82 0.0012207 34.6153 0.0012207H33.4979C33.4516 0.0012207 33.4053 0.00122063 33.3596 0.00309362C33.1548 0.00810251 32.9605 0.095128 32.8192 0.245026C32.678 0.394924 32.6014 0.595415 32.6064 0.802393C32.6113 1.00937 32.6974 1.20588 32.8456 1.3487C32.9939 1.49151 33.1922 1.56893 33.3969 1.56392V1.56205ZM39.5554 1.56205H40.7904C40.9951 1.56205 41.1914 1.47983 41.3362 1.33347C41.4809 1.18712 41.5623 0.988614 41.5623 0.781635C41.5623 0.574656 41.4809 0.376155 41.3362 0.229799C41.1914 0.0834426 40.9951 0.0012207 40.7904 0.0012207H39.5554C39.3506 0.0012207 39.1543 0.0834426 39.0096 0.229799C38.8648 0.376155 38.7835 0.574656 38.7835 0.781635C38.7835 0.988614 38.8648 1.18712 39.0096 1.33347C39.1543 1.47983 39.3506 1.56205 39.5554 1.56205V1.56205ZM45.7305 1.56205H46.9655C47.1702 1.56205 47.3666 1.47983 47.5113 1.33347C47.6561 1.18712 47.7374 0.988614 47.7374 0.781635C47.7374 0.574656 47.6561 0.376155 47.5113 0.229799C47.3666 0.0834426 47.1702 0.0012207 46.9655 0.0012207H45.7305C45.5258 0.0012207 45.3294 0.0834426 45.1847 0.229799C45.0399 0.376155 44.9586 0.574656 44.9586 0.781635C44.9586 0.988614 45.0399 1.18712 45.1847 1.33347C45.3294 1.47983 45.5258 1.56205 45.7305 1.56205V1.56205ZM51.9056 1.56205H53.1406C53.3453 1.56205 53.5417 1.47983 53.6864 1.33347C53.8312 1.18712 53.9125 0.988614 53.9125 0.781635C53.9125 0.574656 53.8312 0.376155 53.6864 0.229799C53.5417 0.0834426 53.3453 0.0012207 53.1406 0.0012207H51.9056C51.7009 0.0012207 51.5045 0.0834426 51.3598 0.229799C51.215 0.376155 51.1337 0.574656 51.1337 0.781635C51.1337 0.988614 51.215 1.18712 51.3598 1.33347C51.5045 1.47983 51.7009 1.56205 51.9056 1.56205V1.56205ZM58.0807 1.56205H59.3157C59.5205 1.56205 59.7168 1.47983 59.8615 1.33347C60.0063 1.18712 60.0876 0.988614 60.0876 0.781635C60.0876 0.574656 60.0063 0.376155 59.8615 0.229799C59.7168 0.0834426 59.5205 0.0012207 59.3157 0.0012207H58.0807C57.876 0.0012207 57.6797 0.0834426 57.5349 0.229799C57.3901 0.376155 57.3088 0.574656 57.3088 0.781635C57.3088 0.988614 57.3901 1.18712 57.5349 1.33347C57.6797 1.47983 57.876 1.56205 58.0807 1.56205V1.56205ZM63.6763 2.32186C63.9617 2.5245 64.221 2.76233 64.4482 3.02985C64.5817 3.18678 64.7714 3.28366 64.9756 3.29918C65.1797 3.31469 65.3816 3.24757 65.5369 3.11258C65.6921 2.97758 65.7879 2.78578 65.8032 2.57936C65.8186 2.37294 65.7522 2.16881 65.6187 2.01188C65.3072 1.6461 64.9519 1.32102 64.5609 1.04417C64.4778 0.985359 64.384 0.943681 64.2849 0.921511C64.1859 0.899341 64.0835 0.897115 63.9836 0.914957C63.8837 0.932799 63.7882 0.97036 63.7027 1.0255C63.6172 1.08063 63.5432 1.15227 63.485 1.2363C63.3676 1.40603 63.3216 1.61598 63.3572 1.81997C63.3929 2.02396 63.5072 2.20528 63.6751 2.32404L63.6763 2.32186ZM65.4563 7.22286V8.47153C65.4563 8.6785 65.5376 8.877 65.6824 9.02336C65.8271 9.16972 66.0234 9.25194 66.2282 9.25194C66.4329 9.25194 66.6292 9.16972 66.774 9.02336C66.9187 8.877 67.0001 8.6785 67.0001 8.47153V7.22286C67.0001 7.01588 66.9187 6.81738 66.774 6.67102C66.6292 6.52467 66.4329 6.44245 66.2282 6.44245C66.0234 6.44245 65.8271 6.52467 65.6824 6.67102C65.5376 6.81738 65.4563 7.01588 65.4563 7.22286ZM65.4563 13.4662V14.7148C65.4563 14.9218 65.5376 15.1203 65.6824 15.2667C65.8271 15.413 66.0234 15.4953 66.2282 15.4953C66.4329 15.4953 66.6292 15.413 66.774 15.2667C66.9187 15.1203 67.0001 14.9218 67.0001 14.7148V13.4662C67.0001 13.2592 66.9187 13.0607 66.774 12.9143C66.6292 12.768 66.4329 12.6858 66.2282 12.6858C66.0234 12.6858 65.8271 12.768 65.6824 12.9143C65.5376 13.0607 65.4563 13.2592 65.4563 13.4662ZM65.4563 19.7095V20.9582C65.4563 21.1651 65.5376 21.3636 65.6824 21.51C65.8271 21.6563 66.0234 21.7386 66.2282 21.7386C66.4329 21.7386 66.6292 21.6563 66.774 21.51C66.9187 21.3636 67.0001 21.1651 67.0001 20.9582V19.7095C67.0001 19.5025 66.9187 19.304 66.774 19.1577C66.6292 19.0113 66.4329 18.9291 66.2282 18.9291C66.0234 18.9291 65.8271 19.0113 65.6824 19.1577C65.5376 19.304 65.4563 19.5025 65.4563 19.7095ZM65.4563 25.9528V27.2015C65.4563 27.4084 65.5376 27.6069 65.6824 27.7533C65.8271 27.8997 66.0234 27.9819 66.2282 27.9819C66.4329 27.9819 66.6292 27.8997 66.774 27.7533C66.9187 27.6069 67.0001 27.4084 67.0001 27.2015V25.9528C67.0001 25.7458 66.9187 25.5473 66.774 25.401C66.6292 25.2546 66.4329 25.1724 66.2282 25.1724C66.0234 25.1724 65.8271 25.2546 65.6824 25.401C65.5376 25.5473 65.4563 25.7458 65.4563 25.9528ZM65.4563 32.1961V33.4448C65.4563 33.6518 65.5376 33.8503 65.6824 33.9966C65.8271 34.143 66.0234 34.2252 66.2282 34.2252C66.4329 34.2252 66.6292 34.143 66.774 33.9966C66.9187 33.8503 67.0001 33.6518 67.0001 33.4448V32.1961C67.0001 31.9891 66.9187 31.7906 66.774 31.6443C66.6292 31.4979 66.4329 31.4157 66.2282 31.4157C66.0234 31.4157 65.8271 31.4979 65.6824 31.6443C65.5376 31.7906 65.4563 31.9891 65.4563 32.1961ZM63.5843 37.0756C63.2937 37.2702 62.98 37.4269 62.6506 37.542C62.5548 37.5754 62.4664 37.6277 62.3906 37.6957C62.3148 37.7637 62.2529 37.8462 62.2086 37.9383C62.1643 38.0305 62.1383 38.1306 62.1323 38.2329C62.1262 38.3353 62.1401 38.4378 62.1733 38.5346C62.2064 38.6315 62.2581 38.7208 62.3253 38.7975C62.3926 38.8742 62.4742 38.9367 62.5653 38.9815C62.6565 39.0264 62.7555 39.0526 62.8567 39.0587C62.9579 39.0648 63.0593 39.0507 63.1551 39.0172C63.607 38.8592 64.0374 38.6442 64.4361 38.3773C64.6069 38.2631 64.7257 38.085 64.7666 37.8822C64.8074 37.6794 64.7669 37.4684 64.654 37.2958C64.541 37.1232 64.3648 37.003 64.1642 36.9617C63.9636 36.9204 63.755 36.9614 63.5843 37.0756ZM57.9958 37.772H56.7608C56.5561 37.772 56.3597 37.8542 56.215 38.0006C56.0702 38.147 55.9889 38.3455 55.9889 38.5524C55.9889 38.7594 56.0702 38.9579 56.215 39.1043C56.3597 39.2506 56.5561 39.3329 56.7608 39.3329H57.9958C58.2005 39.3329 58.3969 39.2506 58.5416 39.1043C58.6864 38.9579 58.7677 38.7594 58.7677 38.5524C58.7677 38.3455 58.6864 38.147 58.5416 38.0006C58.3969 37.8542 58.2005 37.772 57.9958 37.772Z" fill="#6B6B6B"/>
<path d="M20.0481 51.8182C20.2461 51.8181 20.4365 51.8949 20.58 52.0327C20.7236 52.1705 20.8093 52.3587 20.8194 52.5586C20.8296 52.7585 20.7634 52.9546 20.6346 53.1066C20.5057 53.2585 20.3241 53.3546 20.1272 53.375L20.0481 53.379H15.9318C15.7339 53.3791 15.5434 53.3024 15.3999 53.1646C15.2563 53.0268 15.1706 52.8385 15.1605 52.6386C15.1503 52.4388 15.2165 52.2426 15.3454 52.0907C15.4742 51.9387 15.6558 51.8426 15.8528 51.8223L15.9318 51.8182H20.0481ZM27.4104 32.0316L30.1654 35.9998C30.3816 35.4442 30.7462 34.9416 31.2538 34.5951C32.3434 33.8518 33.9758 33.9149 34.983 34.572C35.1877 33.9948 35.5449 33.4744 36.0537 33.1273C37.2477 32.3131 39.1589 32.5516 40.1274 33.4232C40.3436 32.8807 40.6928 32.3952 41.1732 32.0675C42.4894 31.17 44.6377 31.568 45.4717 32.67L45.4967 32.7052L45.8493 33.0957C47.63 35.0955 49.1321 37.135 50.3556 39.2142L50.6134 39.6603L51.0055 40.3573L51.3677 41.0129L51.6919 41.6163C53.1474 44.3681 53.8356 46.2835 54.7656 49.9583C54.9612 50.7902 55.2058 51.6095 55.4979 52.4119C55.9346 52.3348 56.3834 52.3711 56.8024 52.5172C57.2214 52.6634 57.5969 52.9147 57.8936 53.2476L57.9843 53.3553L59.3447 55.0535C59.7685 55.5826 59.9749 56.2561 59.9212 56.9348C59.8675 57.6135 59.5579 58.2453 59.0563 58.6996L58.9566 58.7854L48.428 67.4059C47.9047 67.8344 47.2386 68.0431 46.5673 67.9889C45.8961 67.9347 45.2711 67.6217 44.8218 67.1146L44.7369 67.0135L43.3783 65.3153C43.0993 64.9674 42.912 64.5537 42.8339 64.1128C42.7558 63.6719 42.7895 63.2181 42.9319 62.794L42.8822 62.7743L42.8328 62.7499C42.144 62.3768 41.3711 62.1016 40.514 61.9243L40.225 61.869L40.1605 61.8546C33.0755 59.957 23.6652 53.9075 22.7939 51.0259C22.0202 48.4662 23.8887 47.0302 26.0997 47.3471C26.7941 47.4463 28.4203 48.0538 31.0559 49.1923L31.9065 49.5625L31.7975 49.4151C30.8124 48.0828 29.8996 46.8027 29.0592 45.5749L27.458 43.229L25.3698 40.2056C24.4485 38.8783 23.4099 37.3884 22.2539 35.736C21.2041 34.1605 21.4906 32.0672 22.9554 31.0682C24.3834 30.0955 26.3464 30.5597 27.4104 32.0328V32.0316ZM55.3408 54.1214L55.2657 54.1776L44.7372 62.798C44.5268 62.97 44.3879 63.2155 44.3479 63.486C44.3079 63.7564 44.3697 64.0323 44.521 64.2589L44.5766 64.3348L45.9351 66.033C46.1052 66.2457 46.348 66.3861 46.6156 66.4265C46.8831 66.467 47.1559 66.4045 47.3801 66.2515L47.4551 66.1953L57.9837 57.5748C58.1941 57.4029 58.333 57.1574 58.373 56.8869C58.413 56.6164 58.3512 56.3406 58.1998 56.1139L58.1443 56.0381L56.7842 54.3399C56.614 54.1278 56.3714 53.9879 56.1042 53.9477C55.8371 53.9075 55.5647 53.9699 55.3408 54.1226V54.1214ZM23.8187 32.3631C23.0934 32.8579 22.9399 33.9739 23.5241 34.8498L26.5261 39.1552L28.2768 41.6859C28.709 42.3144 29.1055 42.8923 29.4661 43.4197L30.0219 44.2348C31.4446 46.3342 33.0862 48.5978 34.9465 51.0256C35.4387 51.6677 34.7539 52.548 34.0203 52.2159L32.218 51.4068L31.0158 50.8761C28.1956 49.6455 26.4539 48.9756 25.8827 48.8938C24.6508 48.7171 23.8869 49.3046 24.2701 50.5711C24.9336 52.7656 33.7294 58.4411 40.3235 60.2838L40.5335 60.3419L40.7968 60.3912C41.7064 60.5768 42.5438 60.8611 43.3089 61.244L43.5611 61.3755C43.6491 61.4229 43.7271 61.4871 43.7908 61.5646L54.1116 53.1149L54.1064 53.1015C53.7697 52.1988 53.4901 51.2753 53.2693 50.3367L53.0739 49.5775C52.0815 45.7912 51.3214 44.0412 49.2762 40.4373C48.0626 38.3016 46.5377 36.2023 44.7017 34.1393L44.3312 33.7273L44.2583 33.6336C43.9523 33.175 42.6836 32.9225 42.0383 33.3614C41.4455 33.7672 41.259 34.8776 41.5363 35.4023L41.5733 35.4648L43.0884 37.7358C43.1992 37.9017 43.2427 38.1042 43.2099 38.3016C43.1772 38.499 43.0707 38.6761 42.9124 38.7964C42.7542 38.9166 42.5563 38.9708 42.3596 38.9477C42.163 38.9246 41.9826 38.826 41.8559 38.6723L41.8086 38.6098L40.8163 37.1233L40.7718 37.0628L39.1811 34.6762C38.8807 34.2261 37.5685 33.9786 36.9185 34.4218C36.3356 34.8192 36.1704 35.908 36.4579 36.4434L36.4962 36.5074L38.9662 40.2103L38.9804 40.2344L39.3247 40.7497C39.4347 40.9156 39.4777 41.1178 39.4447 41.3148C39.4118 41.5117 39.3054 41.6883 39.1475 41.8084C38.9896 41.9284 38.7922 41.9826 38.5959 41.9599C38.3996 41.9372 38.2194 41.8392 38.0924 41.6862L38.0449 41.6222L34.3201 36.0392C34.0348 35.6115 32.7963 35.427 32.1186 35.8893C31.5132 36.3023 31.3254 37.2941 31.5968 37.8063L31.6351 37.8688L35.7027 43.966L35.7298 44.0097L35.7638 44.0749L35.7947 44.1499L35.8086 44.1954C35.8206 44.2399 35.8288 44.2853 35.833 44.3312L35.836 44.413V44.4442L35.8289 44.5151L35.8129 44.5978L35.791 44.669L35.7539 44.7564L35.7051 44.8404L35.6607 44.9003L35.61 44.9565L35.565 44.9986L35.5069 45.0442L35.4949 45.0523C35.4652 45.0726 35.4343 45.0908 35.4022 45.1069L35.3464 45.1316L35.2846 45.1538L35.2025 45.1731L35.096 45.1853H35.0169L34.9437 45.1772L34.8959 45.1678C34.8555 45.1588 34.8158 45.1465 34.7773 45.131L34.6847 45.0857L34.6229 45.0458L34.5763 45.0102L34.5056 44.9434L34.4747 44.9065L34.4182 44.8297L26.2239 33.0349C25.6249 32.1427 24.5439 31.8686 23.8187 32.3631ZM33.5 14.0461C36.5993 14.0461 39.1221 16.5435 39.2095 19.6539L39.212 19.8212V28.6243C39.212 28.8244 39.136 29.0168 38.9997 29.1619C38.8634 29.307 38.6772 29.3936 38.4795 29.4038C38.2819 29.414 38.0879 29.3471 37.9376 29.2168C37.7874 29.0866 37.6924 28.9029 37.6722 28.7039L37.6682 28.6243V19.8212C37.6682 18.7291 37.2489 17.6797 36.4987 16.894C35.7484 16.1083 34.7258 15.6478 33.6464 15.6095L33.5 15.607H5.71198C4.63162 15.607 3.59346 16.031 2.81634 16.7898C2.03922 17.5486 1.58386 18.5829 1.54625 19.6745L1.54378 19.8212V47.604C1.54311 48.6965 1.96212 49.7466 2.71243 50.5328C3.46274 51.319 4.48572 51.7798 5.56563 51.8182L5.71198 51.8207H13.157C13.355 51.8206 13.5454 51.8974 13.6889 52.0352C13.8325 52.173 13.9182 52.3612 13.9283 52.5611C13.9385 52.761 13.8723 52.9571 13.7434 53.1091C13.6146 53.261 13.433 53.3571 13.236 53.3775L13.157 53.3815H5.71198C2.61269 53.3815 0.0898485 50.8861 0.00247057 47.7738L0 47.604V19.8212C0 16.6877 2.47005 14.137 5.54649 14.0486L5.71198 14.0461H33.5Z" fill="#6B6B6B"/>
<path fill-rule="evenodd" clip-rule="evenodd" d="M27.0966 45.8708L27.5971 46.1559C25.7641 45.6878 24.3979 45.668 23.4984 46.0965C22.0661 46.7792 20.9487 48.1378 21.2803 50.2586H6.45289C5.63402 50.2586 4.84869 49.9298 4.26966 49.3443C3.69063 48.7589 3.36534 47.9649 3.36534 47.137V20.2895C3.36534 19.4616 3.69063 18.6676 4.26966 18.0822C4.84869 17.4967 5.63402 17.1678 6.45289 17.1678H6.86138C9.26967 29.3766 16.6798 39.6865 26.7669 45.6754L27.0966 45.8708Z" fill="#EBF2F2"/>
<path d="M47.3943 14.1183C47.5854 14.1183 47.7697 14.1899 47.9115 14.3194C48.0533 14.4489 48.1427 14.6269 48.1621 14.8191L48.1662 14.8987V18.8847H52.1102C52.3081 18.8847 52.4985 18.9615 52.642 19.0994C52.7854 19.2372 52.8711 19.4255 52.8812 19.6253C52.8913 19.8251 52.8251 20.0213 52.6963 20.1732C52.5674 20.3251 52.3858 20.4211 52.1889 20.4415L52.1102 20.4456H48.1662V24.4329C48.1663 24.633 48.0903 24.8255 47.954 24.9706C47.8177 25.1158 47.6315 25.2024 47.4338 25.2127C47.2362 25.2229 47.0421 25.156 46.8919 25.0258C46.7416 24.8955 46.6465 24.7119 46.6264 24.5128L46.6224 24.4329V20.4456H42.6786C42.4807 20.4456 42.2904 20.3688 42.1469 20.2309C42.0034 20.0931 41.9178 19.9048 41.9076 19.705C41.8975 19.5052 41.9637 19.309 42.0926 19.1571C42.2214 19.0052 42.403 18.9092 42.5999 18.8888L42.6786 18.8847H46.6224V14.8987C46.6224 14.6917 46.7037 14.4932 46.8485 14.3469C46.9932 14.2005 47.1895 14.1183 47.3943 14.1183Z" fill="#6B6B6B"/>
</svg>
